<svg id="Capa_1" enable-background="new 0 0 512 512" height="512" viewBox="0 0 512 512" width="512" xmlns="http://www.w3.org/2000/svg"><g><path d="m371.104 59.965h-50.718v-39.963c0-11.029-8.972-20.002-20.002-20.002h-88.769c-11.029 0-20.002 8.973-20.002 20.002v39.963h-50.718c-19.3 0-35.003 15.702-35.003 35.003v352.028c0 35.844 29.161 65.005 65.005 65.005h170.203c35.844 0 65.005-29.161 65.005-65.005 0-6.048 0-332.596 0-352.028.001-19.301-15.701-35.003-35.001-35.003zm-149.488-29.963h68.767v29.585h-68.767zm-85.72 64.965c0-2.757 2.243-5 5-5h230.207c2.757 0 5 2.243 5 5v44.133h-240.207zm240.208 352.028c0 19.3-15.702 35.003-35.003 35.003h-170.202c-19.3 0-35.003-15.702-35.003-35.003v-277.892h240.208z"/><path d="m208.53 331.33h65.675l-66.027 91.821c-4.836 6.727-3.305 16.1 3.422 20.937 6.731 4.841 16.105 3.299 20.937-3.421l83.111-115.58c7.122-9.905.026-23.759-12.18-23.759h-65.315l53.785-73.258c4.904-6.678 3.464-16.067-3.214-20.97-6.675-4.902-16.066-3.464-20.969 3.214l-71.318 97.137c-7.249 9.873-.197 23.879 12.093 23.879z"/></g></svg>