<svg height="512pt" viewBox="0 -70 512.002 512" width="512pt" xmlns="http://www.w3.org/2000/svg"><path d="m460.265625 59.9375h-23.234375v-22.902344c0-20.421875-16.617188-37.035156-37.035156-37.035156h-287.992188c-20.421875 0-37.035156 16.613281-37.035156 37.035156v22.902344h-23.234375c-28.527344 0-51.734375 23.210938-51.734375 51.734375v141.726563c0 28.527343 23.207031 51.734374 51.734375 51.734374h23.234375v29.054688c0 20.851562 16.964844 37.816406 37.8125 37.816406h21.601562c20.851563 0 37.8125-16.964844 37.8125-37.816406v-29.054688h167.609376v29.054688c0 20.851562 16.960937 37.816406 37.8125 37.816406h21.601562c20.851562 0 37.8125-16.964844 37.8125-37.816406v-29.054688h23.238281c28.523438 0 51.734375-23.207031 51.734375-51.734374v-141.726563c-.003906-28.523437-23.210937-51.734375-51.738281-51.734375zm-355.296875-22.902344c0-3.878906 3.15625-7.035156 7.035156-7.035156h287.992188c3.878906 0 7.035156 3.15625 7.035156 7.035156v22.902344h-302.0625zm37.226562 297.152344c0 4.308594-3.503906 7.816406-7.8125 7.816406h-21.601562c-4.308594 0-7.8125-3.507812-7.8125-7.816406v-29.054688h37.226562zm264.835938 0c0 4.308594-3.507812 7.816406-7.8125 7.816406h-21.601562c-4.308594 0-7.8125-3.507812-7.8125-7.816406v-29.054688h37.222656v29.054688zm74.96875-80.789062c0 11.984374-9.75 21.734374-21.734375 21.734374h-408.53125c-11.984375 0-21.734375-9.75-21.734375-21.734374v-141.726563c0-11.984375 9.75-21.734375 21.734375-21.734375h408.53125c11.984375 0 21.734375 9.75 21.734375 21.734375zm0 0"/><path d="m89.96875 119.859375c-8.28125 0-15 6.714844-15 15v95.351563c0 8.285156 6.71875 15 15 15 8.285156 0 15-6.714844 15-15v-95.351563c0-8.285156-6.714844-15-15-15zm0 0"/><path d="m157.195312 197.535156c21.488282 0 38.964844-17.421875 38.964844-38.839844 0-21.414062-17.476562-38.835937-38.964844-38.835937h-23.964843c-8.285157 0-15 6.714844-15 15 0 8.28125 6.714843 15 15 15h23.964843c4.945313 0 8.964844 3.964844 8.964844 8.835937 0 4.875-4.019531 8.839844-8.964844 8.839844-21.484374 0-38.964843 17.421875-38.964843 38.839844 0 21.414062 17.480469 38.839844 38.964843 38.839844h23.964844c8.285156 0 15-6.71875 15-15 0-8.285156-6.714844-15-15-15h-23.964844c-4.941406 0-8.964843-3.96875-8.964843-8.839844 0-4.875 4.023437-8.839844 8.964843-8.839844zm0 0"/><path d="m232.605469 119.859375c-8.28125 0-15 6.714844-15 15v20.003906c0 8.285157 6.71875 15 15 15 8.285156 0 15-6.714843 15-15v-20.003906c0-8.285156-6.714844-15-15-15zm0 0"/><path d="m232.605469 195.203125c-8.28125 0-15 6.71875-15 15v20.011719c0 8.28125 6.71875 15 15 15 8.285156 0 15-6.71875 15-15v-20.011719c0-8.28125-6.714844-15-15-15zm0 0"/><path d="m306.0625 119.859375c-21.484375 0-38.964844 17.480469-38.964844 38.964844v47.421875c0 21.484375 17.480469 38.96875 38.964844 38.96875 21.488281 0 38.96875-17.480469 38.96875-38.96875v-47.421875c0-21.484375-17.480469-38.964844-38.96875-38.964844zm8.96875 86.386719c0 4.945312-4.023438 8.96875-8.96875 8.96875-4.941406 0-8.964844-4.023438-8.964844-8.96875v-47.421875c0-4.941407 4.023438-8.964844 8.964844-8.964844 4.945312 0 8.96875 4.019531 8.96875 8.964844zm0 0"/><path d="m398.0625 119.859375c-21.484375 0-38.964844 17.480469-38.964844 38.964844v47.421875c0 21.484375 17.480469 38.96875 38.964844 38.96875 21.488281 0 38.96875-17.480469 38.96875-38.96875v-47.421875c0-21.484375-17.480469-38.964844-38.96875-38.964844zm8.96875 86.386719c0 4.945312-4.023438 8.96875-8.96875 8.96875-4.941406 0-8.964844-4.023438-8.964844-8.96875v-47.421875c0-4.941407 4.023438-8.964844 8.964844-8.964844 4.945312 0 8.96875 4.019531 8.96875 8.964844zm0 0"/></svg>